<svg viewBox="0 -3 454.50067 454" xmlns="http://www.w3.org/2000/svg">
    <path d="m266.699219 400.550781-.699219.5-266 .5c-.199219-95.699219 71.101562-166 159.199219-166.101562 40.800781-.097657 78.101562 14.902343 106.300781 40.601562-13.765625 17.539063-21.234375 39.203125-21.199219 61.5.0625 22.941407 7.964844 45.167969 22.398438 63zm0 0" fill="#e48e66">
    </path>
    <path d="m159.402344.25c52.851562 0 95.699218 42.847656 95.699218 95.699219 0 52.855469-42.847656 95.699219-95.699218 95.699219-52.855469 0-95.703125-42.84375-95.703125-95.699219 0-52.851563 42.847656-95.699219 95.703125-95.699219zm0 0" fill="#f8ec7d">
    </path>
    <path d="m159.402344 235.449219h-.203125c-88 .199219-159.2968752 70.5-159.097657 166.101562l159.300782-.300781zm0 0" fill="#d18162">
    </path>
    <path d="m159.402344.25c-52.855469 0-95.703125 42.847656-95.703125 95.699219 0 52.855469 42.847656 95.699219 95.703125 95.699219zm0 0" fill="#e2d574">
    </path>
    <path d="m344.402344 227.550781c-33.839844-.078125-65.8125 15.5-86.601563 42.199219l-.101562.101562c-31.546875 40.386719-31.007813 97.214844 1.300781 137 1.726562 2.191407 3.5625 4.292969 5.5 6.296876 34.476562 36.484374 89.269531 45.011718 133.199219 20.726562 43.929687-24.28125 65.859375-75.21875 53.304687-123.816406-12.554687-48.597656-56.410156-82.539063-106.601562-82.507813zm0 0" fill="#63316d">
    </path>
    <path d="m384.902344 327.550781h-30.5v-30.5c0-5.523437-4.480469-10-10-10-5.523438 0-10 4.476563-10 10v30.5h-30.5c-5.523438 0-10 4.476563-10 10 0 5.523438 4.476562 10 10 10h30.5v30.5c0 5.523438 4.476562 10 10 10 5.519531 0 10-4.476562 10-10v-30.5h30.5c5.519531 0 10-4.476562 10-10 0-5.523437-4.480469-10-10-10zm0 0" fill="#f8ec7d">
    </path>
</svg>